<?xml version="1.0" standalone="no"?>
<!DOCTYPE svg PUBLIC "-//W3C//DTD SVG 20010904//EN"
 "http://www.w3.org/TR/2001/REC-SVG-20010904/DTD/svg10.dtd">
<svg version="1.0" xmlns="http://www.w3.org/2000/svg"
 width="700.000000pt" height="700.000000pt" viewBox="0 0 700.000000 700.000000"
 preserveAspectRatio="xMidYMid meet">
<metadata>
Created by potrace 1.14, written by Peter Selinger 2001-2017
</metadata>
<g transform="translate(0.000000,700.000000) scale(0.100000,-0.100000)"
fill="#000000" stroke="none">
<path d="M1325 6418 c-138 -16 -245 -85 -320 -208 -69 -113 -65 0 -65 -1810 0
-1776 -3 -1686 54 -1798 34 -66 94 -131 157 -169 109 -65 66 -63 1206 -63 568
0 1033 -3 1034 -7 5 -52 2 -196 -5 -201 -5 -3 -326 -6 -712 -6 -697 -1 -703
-1 -731 -22 -56 -42 -53 -134 6 -172 23 -16 142 -17 1541 -18 1215 -1 1521 1
1547 12 35 14 63 58 63 99 0 38 -35 83 -73 93 -18 5 -344 8 -725 8 -608 -1
-692 1 -693 14 -1 17 -1 168 0 188 1 9 216 12 1039 12 1107 0 1083 -1 1181 50
71 36 147 120 189 207 l37 78 0 1685 c0 1603 -1 1687 -18 1735 -50 138 -158
242 -292 281 -56 16 -190 17 -2210 18 -1182 1 -2177 -2 -2210 -6z m4379 -222
c50 -21 102 -71 122 -119 17 -40 18 -112 19 -1339 1 -714 -1 -1298 -4 -1299
-8 -1 -4651 -1 -4672 0 -14 1 -15 125 -15 1299 l1 1297 23 48 c26 52 81 103
127 116 17 5 981 10 2198 10 1818 1 2173 -1 2201 -13z m133 -2979 c7 -4 10
-85 9 -234 -1 -213 -3 -231 -23 -270 -31 -58 -52 -81 -98 -106 l-40 -22 -2160
-1 c-1188 0 -2175 1 -2194 4 -53 8 -121 60 -150 117 -26 49 -26 53 -27 280 -1
127 0 232 1 235 4 7 4670 4 4682 -3z"/>
<path d="M3438 3106 c-55 -20 -85 -42 -113 -84 -116 -175 72 -400 260 -313
162 75 169 302 12 382 -49 25 -112 31 -159 15z"/>
<path d="M4110 1748 c0 -5 -4 -7 -9 -4 -4 3 -16 -9 -26 -28 -21 -39 -11 -85
23 -102 12 -6 20 -13 17 -15 -6 -6 35 -2 63 6 12 4 22 14 22 22 0 8 5 11 11 7
8 -5 10 1 7 19 -3 15 -1 24 3 21 17 -10 9 16 -10 35 -14 14 -16 21 -8 25 7 2
4 5 -5 5 -10 1 -18 4 -18 9 0 4 -16 7 -35 8 -19 0 -35 -4 -35 -8z"/>
<path d="M2936 1742 c-4 -3 -19 -6 -34 -7 -64 -5 -92 -27 -81 -67 5 -19 4 -28
-4 -28 -8 0 -8 -3 0 -11 8 -8 8 -20 3 -35 -5 -13 -6 -24 -1 -24 9 0 7 -43 -3
-59 -4 -5 -3 -12 2 -15 6 -3 8 -61 2 -61 -1 0 -2 -19 -3 -43 -1 -23 1 -42 5
-42 4 0 3 -13 -2 -30 -6 -21 -5 -30 3 -30 7 0 6 -4 -3 -10 -11 -7 -11 -10 -2
-10 10 0 10 -5 2 -20 -8 -14 -8 -20 0 -20 8 0 8 -6 0 -20 -6 -11 -7 -20 -3
-20 4 0 8 -16 8 -35 0 -19 -3 -35 -8 -35 -9 0 -5 -23 7 -31 4 -4 4 -15 -1 -25
-6 -11 -7 -28 -4 -40 5 -18 14 -20 70 -20 43 1 66 5 69 14 3 10 7 10 20 0 13
-11 14 -11 8 0 -6 10 1 9 24 -3 17 -9 38 -14 46 -11 7 3 20 -1 28 -9 7 -8 16
-11 20 -8 7 8 40 14 73 13 12 0 25 5 28 10 4 6 11 8 16 5 5 -4 12 1 15 9 3 9
10 13 15 10 5 -3 9 0 9 6 0 6 3 9 8 7 7 -4 73 57 72 68 -1 21 1 25 12 19 6 -4
8 -3 4 4 -3 6 0 16 7 23 7 7 11 24 9 37 -3 17 -1 23 7 18 13 -9 14 3 1 24 -5
8 -5 19 -1 25 9 12 11 45 2 45 -4 0 -7 14 -7 31 -1 17 -7 35 -14 39 -7 4 -9
13 -6 19 4 6 0 11 -9 11 -9 0 -13 5 -10 10 3 6 1 10 -5 10 -6 0 -8 5 -5 10 3
6 3 10 -2 10 -4 0 -22 14 -40 30 -18 17 -39 30 -47 30 -9 0 -16 4 -16 8 0 11
-9 12 -102 17 -43 2 -78 0 -78 -5 0 -5 -9 -7 -20 -5 -11 2 -24 -3 -29 -13 -9
-16 -11 -16 -28 2 -10 10 -13 16 -7 13 7 -4 11 8 11 33 0 22 -5 40 -11 40 -7
0 -8 3 -1 8 15 11 17 84 2 76 -8 -5 -8 -3 1 7 6 7 12 21 12 30 0 17 -23 32
-34 21z m198 -329 c10 4 19 1 22 -8 4 -8 9 -13 14 -10 9 6 55 -45 62 -71 3
-10 9 -28 14 -38 6 -15 4 -17 -7 -11 -11 6 -11 5 -2 -5 8 -8 9 -20 3 -36 -5
-13 -6 -24 -2 -24 4 0 -2 -7 -12 -15 -11 -8 -16 -15 -11 -15 4 0 -2 -9 -15
-20 -13 -11 -27 -20 -32 -20 -5 0 -7 -4 -4 -9 4 -5 -2 -8 -11 -6 -10 1 -24 -3
-32 -9 -12 -8 -13 -8 -7 2 7 11 4 11 -12 1 -17 -11 -24 -10 -38 2 -16 12 -17
12 -9 -1 6 -12 5 -13 -6 -2 -7 6 -21 12 -31 12 -28 0 -57 35 -51 61 5 17 3 20
-8 14 -11 -7 -12 -6 -2 7 7 8 10 18 6 21 -3 4 0 13 6 21 8 9 8 16 2 20 -6 4
-7 14 -4 23 5 12 3 14 -7 8 -10 -6 -11 -4 -4 6 14 23 17 62 3 53 -8 -4 -9 -3
-5 4 4 7 12 12 17 12 6 0 17 7 26 15 8 8 19 13 24 10 5 -4 9 -2 9 4 0 5 14 9
30 9 17 -1 33 2 37 6 4 3 10 1 14 -5 4 -7 14 -9 23 -6z"/>
<path d="M4404 1735 c-21 -6 -46 -10 -54 -10 -21 2 -41 -15 -33 -28 10 -16 10
-57 0 -57 -4 0 -4 -7 1 -17 5 -9 6 -28 2 -43 -4 -15 -4 -33 0 -40 5 -7 5 -23
0 -34 -4 -12 -4 -31 1 -43 5 -13 4 -25 -1 -28 -7 -4 -6 -13 0 -26 7 -12 7 -19
1 -19 -7 0 -7 -8 -2 -23 5 -13 5 -30 1 -37 -5 -8 -5 -20 -1 -27 4 -8 4 -36 1
-63 -3 -27 -2 -56 2 -65 6 -9 5 -15 -1 -15 -6 0 -6 -11 -1 -30 5 -17 5 -32 0
-35 -5 -3 -5 -16 0 -30 6 -16 6 -27 -1 -31 -7 -4 -6 -10 1 -18 6 -9 33 -12 77
-11 38 1 69 3 71 4 1 0 -2 9 -7 20 -6 10 -8 21 -4 24 9 10 11 77 1 83 -4 3 -5
10 -1 17 12 19 9 594 -3 594 -6 0 -28 -5 -50 -12z"/>
<path d="M5029 1738 c-8 -5 -25 -12 -40 -17 -25 -9 -25 -11 -24 -106 1 -74 -3
-99 -13 -103 -8 -3 -17 -1 -21 4 -10 14 -30 18 -113 20 -44 1 -78 -2 -78 -8 0
-5 -4 -7 -9 -3 -5 3 -13 0 -16 -6 -4 -5 -13 -8 -20 -5 -7 2 -16 -2 -19 -11 -4
-9 -9 -13 -12 -10 -7 7 -42 -26 -37 -35 2 -4 -6 -9 -17 -13 -11 -4 -18 -11
-15 -16 4 -5 1 -9 -5 -9 -6 0 -9 -4 -5 -9 3 -6 -3 -14 -12 -20 -10 -6 -15 -11
-11 -11 4 0 3 -12 -3 -27 -17 -42 -13 -151 7 -180 11 -17 12 -23 3 -17 -8 4
-4 -5 9 -20 12 -16 19 -33 15 -39 -3 -5 -2 -7 4 -4 5 3 17 -5 27 -19 11 -13
25 -24 32 -24 8 0 14 -4 14 -10 0 -5 7 -10 15 -10 8 0 15 -4 15 -10 0 -5 7 -7
15 -4 8 4 15 1 15 -6 0 -6 8 -10 18 -9 9 1 25 -2 36 -6 11 -5 26 -4 35 2 10 6
24 7 32 3 8 -5 29 -1 52 10 20 10 37 15 37 12 0 -4 5 0 10 8 8 13 11 12 16 -6
5 -18 13 -20 72 -20 l67 1 1 368 c0 202 -2 367 -5 368 -32 4 -61 3 -72 -3z
m-186 -319 c19 7 27 7 27 0 0 -6 3 -8 8 -5 4 2 25 -4 47 -14 l40 -18 0 -112
c0 -113 -1 -118 -40 -132 -5 -1 -9 -7 -7 -11 1 -5 -6 -7 -15 -5 -10 1 -24 -1
-32 -6 -11 -7 -12 -6 -6 5 8 12 6 12 -8 0 -14 -11 -20 -11 -34 0 -15 12 -16
12 -8 -1 8 -13 6 -13 -8 -2 -9 8 -21 11 -27 7 -5 -3 -10 -1 -10 6 0 7 -3 10
-6 6 -3 -3 -20 10 -37 29 -54 63 -52 151 6 211 17 18 33 31 35 28 2 -2 11 3
20 11 10 11 17 12 22 4 5 -7 15 -8 33 -1z"/>
<path d="M1440 1720 c-8 -6 -11 -10 -7 -10 4 0 3 -8 -2 -19 -6 -10 -7 -21 -4
-25 10 -9 9 -175 0 -169 -5 3 -4 -4 2 -15 14 -27 14 -35 -1 -26 -7 4 -8 3 -4
-5 12 -19 13 -140 1 -145 -7 -3 -7 -5 0 -5 9 -1 12 -64 5 -96 -1 -5 -1 -12 0
-15 5 -14 5 -138 -1 -134 -3 2 -4 -8 -1 -21 2 -13 12 -26 21 -29 22 -6 131 -3
132 3 6 45 3 121 -5 121 -7 0 -8 3 -1 8 13 10 14 105 1 114 -7 5 -7 8 1 8 7 0
10 7 7 15 -7 18 -22 17 168 19 l156 1 4 -47 c2 -27 -1 -48 -5 -48 -5 0 -5 -5
-1 -11 9 -16 10 -119 1 -119 -5 0 -5 -6 0 -12 4 -7 6 -23 5 -34 -3 -21 0 -22
70 -19 94 3 90 2 79 24 -6 10 -7 21 -4 25 11 11 12 36 2 36 -6 0 -5 8 1 20 8
15 8 20 -1 20 -8 0 -7 5 2 17 11 13 11 17 2 20 -9 3 -10 10 -3 24 8 14 7 19
-1 19 -8 0 -7 5 2 17 11 13 11 17 2 20 -9 3 -10 10 -3 24 8 14 7 19 -1 19 -8
0 -7 5 2 17 11 13 11 17 2 20 -9 3 -10 10 -3 24 8 14 7 19 -1 19 -9 0 -9 3 0
14 9 10 9 16 1 21 -8 5 -8 11 1 21 9 11 9 14 0 14 -7 0 -9 5 -6 11 10 16 13
59 5 59 -10 0 -8 20 3 38 5 7 3 12 -3 12 -8 0 -7 6 1 21 9 17 8 23 -2 30 -11
7 -11 9 1 9 9 0 11 3 5 8 -12 8 -13 27 -3 37 4 4 0 22 -9 39 -9 17 -18 25 -20
19 -3 -9 -10 -10 -24 -3 -14 8 -19 7 -19 -1 0 -8 -4 -8 -15 1 -12 10 -15 10
-15 0 0 -9 -3 -10 -14 -1 -10 9 -16 8 -26 -4 -7 -9 -10 -18 -7 -22 4 -3 2 -12
-4 -20 -6 -7 -8 -13 -3 -13 10 0 10 -92 0 -109 -4 -6 -4 -11 1 -11 11 0 10
-93 -1 -102 -5 -3 -80 -6 -167 -6 l-157 -1 3 30 c2 16 -1 29 -6 29 -6 0 -7 6
-2 13 12 20 14 47 2 47 -5 0 -7 5 -3 12 12 18 11 108 -1 108 -6 0 -7 3 0 8 16
12 16 32 0 32 -8 0 -15 5 -15 12 0 9 -3 9 -12 0 -8 -8 -15 -9 -25 -1 -10 9
-13 8 -13 -1 0 -10 -3 -10 -15 0 -12 10 -15 10 -15 0 0 -9 -4 -9 -13 -2 -8 7
-18 7 -27 2z"/>
<path d="M2334 1718 c-3 -4 -13 -8 -23 -8 -10 0 -35 -11 -55 -25 -21 -14 -42
-22 -48 -19 -6 4 -8 2 -4 -4 3 -6 -3 -17 -14 -25 -11 -7 -17 -17 -13 -21 4 -4
2 -11 -5 -15 -7 -4 -14 -22 -16 -39 -3 -17 -7 -36 -10 -41 -4 -5 -2 -13 4 -16
8 -5 8 -11 0 -20 -8 -10 -8 -15 0 -20 6 -4 9 -13 6 -21 -3 -8 1 -14 9 -14 8 0
14 -3 13 -7 -4 -13 26 -53 39 -53 7 0 13 -6 13 -14 0 -8 8 -13 18 -12 9 2 20
-1 23 -7 4 -5 21 -10 38 -11 17 0 31 -5 31 -9 0 -5 7 -7 15 -4 8 4 17 3 19 -2
3 -4 21 -7 40 -6 20 1 36 -2 36 -8 0 -5 14 -7 30 -5 17 3 30 1 30 -4 0 -4 3
-7 8 -7 4 1 10 0 15 -1 4 -1 11 -3 15 -4 25 -3 61 -66 39 -66 -8 0 -6 -4 3
-10 10 -6 11 -10 2 -10 -6 0 -11 -4 -10 -9 5 -16 -47 -56 -72 -56 -14 0 -33
-3 -42 -8 -12 -5 -18 -3 -18 5 0 9 -3 9 -10 -2 -5 -8 -10 -10 -10 -4 0 5 -15
10 -32 10 -33 -1 -96 27 -152 67 -32 23 -60 32 -50 16 3 -5 0 -9 -6 -9 -6 0
-17 -15 -25 -32 -7 -18 -17 -31 -22 -28 -4 3 -8 -7 -9 -22 -1 -15 3 -25 7 -22
4 2 14 -4 21 -14 7 -11 21 -18 31 -16 11 1 16 0 13 -3 -6 -7 71 -45 92 -46 6
0 12 -3 12 -7 0 -4 14 -6 30 -5 17 1 30 -2 30 -6 0 -4 25 -9 55 -11 30 -1 55
-1 55 2 0 5 10 7 65 11 14 1 28 6 31 10 3 5 10 7 15 4 5 -4 9 -1 9 4 0 6 4 10
9 9 15 -4 99 65 106 87 4 11 7 23 6 28 -1 4 4 7 10 7 5 0 7 5 4 10 -3 6 -3 10
2 10 4 0 8 18 8 40 0 22 -3 40 -7 40 -4 0 -5 6 -2 14 3 8 0 17 -5 21 -6 3 -9
10 -7 14 6 10 -69 92 -77 85 -3 -4 -13 1 -22 10 -9 9 -22 16 -28 17 -18 1 -49
7 -77 13 -14 4 -39 7 -57 8 -18 1 -30 4 -28 8 2 3 -10 6 -28 5 -37 -1 -102 27
-110 49 -27 71 71 126 178 101 17 -4 37 -8 45 -10 37 -8 60 -18 60 -26 0 -5 9
-9 21 -9 11 0 18 -4 15 -9 -3 -5 4 -11 17 -15 12 -3 24 -1 25 4 2 6 9 16 16
23 20 20 61 91 48 83 -7 -4 -12 -2 -12 4 0 6 -4 8 -10 5 -5 -3 -10 1 -10 10 0
9 -5 13 -11 9 -6 -3 -14 -3 -18 2 -12 18 -69 39 -118 46 -7 1 -13 4 -13 7 0
10 -191 8 -196 -1z"/>
<path d="M3824 1515 c-6 -19 -7 -32 -2 -29 11 7 10 -3 -3 -27 -7 -14 -7 -24 0
-32 6 -8 6 -18 1 -27 -4 -7 -4 -24 1 -37 11 -30 11 -36 1 -29 -10 6 -9 -25 1
-41 5 -7 3 -22 -4 -34 -6 -12 -7 -19 -1 -15 6 3 9 -4 8 -18 0 -13 -4 -22 -8
-19 -5 2 -8 0 -8 -6 0 -5 6 -11 13 -14 8 -3 2 -15 -17 -35 -16 -17 -33 -29
-38 -26 -4 3 -14 2 -20 -3 -19 -11 -41 -13 -58 -6 -8 3 -17 7 -20 7 -36 9 -71
65 -62 99 1 4 -3 7 -9 7 -5 0 -7 5 -4 10 13 21 14 70 2 70 -8 0 -8 3 -2 8 6 4
10 51 10 112 l0 106 -70 -1 -70 0 -1 -190 c-1 -152 2 -195 13 -214 12 -18 12
-22 2 -16 -8 5 -3 -4 11 -20 14 -16 18 -25 10 -21 -8 5 -1 -4 15 -18 29 -26
64 -45 76 -42 3 0 12 -4 20 -10 19 -14 106 -18 114 -4 3 6 10 8 15 5 10 -6 60
15 60 26 0 5 7 6 15 3 8 -3 13 -11 12 -17 -2 -12 91 -20 125 -11 19 5 21 41 4
63 -7 10 -7 13 -1 9 7 -4 11 18 11 62 0 42 -3 67 -9 63 -6 -4 -7 -1 -1 8 12
20 12 279 -1 279 -6 0 -7 3 0 8 34 24 5 43 -60 38 -22 -1 -45 1 -50 5 -6 5
-15 -6 -21 -26z"/>
<path d="M5398 1545 c-1 -2 -19 -4 -38 -6 -19 -2 -41 -7 -47 -12 -7 -5 -13 -6
-13 -3 0 4 -16 -4 -36 -18 -39 -26 -78 -81 -69 -97 4 -5 2 -9 -4 -9 -6 0 -7
-11 -2 -27 4 -16 6 -38 5 -50 -1 -12 3 -20 7 -17 5 3 9 0 9 -7 0 -15 39 -49
57 -49 9 0 11 -5 7 -12 -4 -7 -4 -10 1 -6 4 4 22 2 39 -5 17 -7 46 -12 64 -12
17 0 32 -3 32 -8 0 -4 4 -5 10 -2 5 3 27 1 49 -6 45 -13 58 -41 35 -73 -7 -11
-14 -17 -14 -12 0 5 -12 1 -26 -9 -15 -9 -23 -12 -20 -6 10 15 -7 14 -22 -1
-9 -9 -12 -9 -12 0 0 7 -5 12 -11 12 -5 0 -7 -6 -3 -12 6 -10 4 -10 -7 0 -7 6
-26 12 -41 12 -15 0 -28 5 -28 11 0 5 -4 8 -9 4 -5 -3 -12 -1 -15 4 -3 5 -20
14 -38 20 -17 6 -29 8 -25 5 4 -4 -3 -15 -15 -25 -11 -11 -17 -19 -12 -19 5 0
2 -6 -6 -13 -19 -14 -20 -53 -2 -49 6 1 12 -3 12 -9 0 -6 7 -9 15 -5 8 3 15 1
15 -4 0 -6 6 -10 14 -10 8 0 22 -7 30 -16 9 -8 16 -12 16 -7 0 4 11 8 25 8 14
0 25 -4 25 -9 0 -5 3 -6 7 -3 3 4 12 2 20 -4 7 -6 13 -8 13 -3 0 5 20 8 45 7
25 0 48 3 51 8 3 5 9 7 14 4 11 -7 60 15 60 27 0 5 5 6 10 3 6 -3 10 -1 10 5
0 6 4 9 8 6 4 -2 20 15 36 39 25 41 33 79 23 115 -15 50 -21 60 -38 65 -10 4
-19 10 -19 14 0 11 -47 31 -71 31 -11 0 -18 4 -15 8 3 5 -13 8 -34 7 -22 -1
-40 2 -40 6 0 5 -7 6 -15 3 -8 -4 -23 -3 -32 1 -10 5 -24 9 -31 11 -41 8 -49
42 -16 72 25 23 113 20 166 -7 21 -10 35 -13 32 -7 -3 6 2 2 10 -8 9 -11 16
-14 16 -7 0 7 5 9 12 5 6 -4 8 -3 4 4 -3 6 -1 14 7 19 13 8 47 57 47 68 0 4
-4 3 -10 0 -5 -3 -10 -1 -10 5 0 6 -4 8 -10 5 -5 -3 -10 -1 -10 6 0 7 -3 9 -6
6 -4 -3 -16 -1 -28 5 -11 7 -24 13 -28 14 -5 1 -9 2 -10 4 -2 1 -23 4 -48 6
-25 2 -50 6 -57 8 -6 3 -13 3 -15 1z"/>
<path d="M4074 1318 c1 -123 -2 -228 -7 -235 -4 -6 -4 -14 1 -17 5 -3 8 -19 6
-34 l-3 -29 69 0 c44 0 70 4 71 11 4 45 3 509 -1 515 -8 12 -84 10 -99 -3 -12
-8 -13 -8 -7 2 5 8 1 12 -12 12 -18 0 -18 -11 -18 -222z"/>
</g>
</svg>
